<svg width="35" height="37" viewBox="0 0 35 37" fill="none" xmlns="http://www.w3.org/2000/svg">
<path d="M14.8438 11.2866C15 10.9429 15.3438 10.7241 15.7188 10.7241H19.5C19.875 10.7241 20.2188 10.9429 20.375 11.2866L20.625 11.7241H23.625C24.1562 11.7241 24.625 12.1929 24.625 12.7241C24.625 13.2866 24.1562 13.7241 23.625 13.7241H11.625C11.0625 13.7241 10.625 13.2866 10.625 12.7241C10.625 12.1929 11.0625 11.7241 11.625 11.7241H14.625L14.8438 11.2866ZM22.9375 25.3179C22.9062 26.1304 22.25 26.7241 21.4375 26.7241H13.7812C12.9688 26.7241 12.3125 26.1304 12.2812 25.3179L11.5938 14.7241H23.625L22.9375 25.3179Z" fill="#767579"/>
</svg>
