<svg width="120" height="121" viewBox="0 0 120 121" fill="none" xmlns="http://www.w3.org/2000/svg">
<path d="M120 60.7241C120 93.8612 93.1371 120.724 60 120.724C26.8629 120.724 0 93.8612 0 60.7241C0 27.587 26.8629 0.724121 60 0.724121C93.1371 0.724121 120 27.587 120 60.7241ZM15 60.7241C15 85.5769 35.1472 105.724 60 105.724C84.8528 105.724 105 85.5769 105 60.7241C105 35.8713 84.8528 15.7241 60 15.7241C35.1472 15.7241 15 35.8713 15 60.7241Z" fill="#F2F4F7"/>
<path d="M60 0.724121C72.6708 0.724121 85.0163 4.73542 95.2671 12.1831C105.518 19.6308 113.148 30.1325 117.063 42.1831L102.798 46.8184C99.8609 37.7804 94.1385 29.9041 86.4503 24.3184C78.7622 18.7326 69.5031 15.7241 60 15.7241V0.724121Z" fill="#244E5A"/>
<path d="M117.063 42.1831C120.483 52.7069 120.925 63.9712 118.342 74.7308C115.759 85.4904 110.251 95.3261 102.426 103.151C94.602 110.975 84.7663 116.483 74.0067 119.066C63.2471 121.649 51.9828 121.207 41.459 117.788L46.0943 103.522C53.9871 106.086 62.4354 106.418 70.5051 104.481C78.5748 102.543 85.9515 98.4122 91.8198 92.5439C97.6881 86.6756 101.819 79.2989 103.757 71.2292C105.694 63.1595 105.362 54.7112 102.798 46.8184L117.063 42.1831Z" fill="#FF9E1B"/>
<path d="M41.459 117.788C32.1507 114.763 23.7235 109.507 16.9124 102.479C10.1013 95.4503 5.11296 86.8623 2.38238 77.4636C-0.348201 68.0649 -0.738115 58.1409 1.24663 48.5569C3.23138 38.9729 7.53053 30.0199 13.7692 22.4787L25.3269 32.04C20.6479 37.696 17.4235 44.4107 15.935 51.5987C14.4464 58.7867 14.7388 66.2297 16.7868 73.2787C18.8347 80.3278 22.576 86.7688 27.6843 92.0402C32.7927 97.3116 39.113 101.253 46.0942 103.522L41.459 117.788Z" fill="#931E42"/>
<path d="M43.2045 69.9628C42.0795 69.9628 41.0767 69.7696 40.196 69.3832C39.321 68.9968 38.625 68.4599 38.108 67.7724C37.5966 67.0792 37.3182 66.2753 37.2727 65.3605H39.4205C39.4659 65.923 39.6591 66.4088 40 66.8179C40.3409 67.2213 40.7869 67.5338 41.3381 67.7554C41.8892 67.977 42.5 68.0878 43.1705 68.0878C43.9205 68.0878 44.5852 67.9571 45.1648 67.6957C45.7443 67.4343 46.1989 67.0707 46.5284 66.6048C46.858 66.1389 47.0227 65.5991 47.0227 64.9855C47.0227 64.3434 46.8636 63.7781 46.5455 63.2895C46.2273 62.7951 45.7614 62.4088 45.1477 62.1304C44.5341 61.852 43.7841 61.7128 42.8977 61.7128H41.5V59.8378H42.8977C43.5909 59.8378 44.1989 59.7128 44.7216 59.4628C45.25 59.2128 45.6619 58.8605 45.9574 58.4059C46.2585 57.9514 46.4091 57.4173 46.4091 56.8037C46.4091 56.2128 46.2784 55.6986 46.017 55.2611C45.7557 54.8236 45.3864 54.4826 44.9091 54.2383C44.4375 53.994 43.8807 53.8718 43.2386 53.8718C42.6364 53.8718 42.0682 53.9826 41.5341 54.2042C41.0057 54.4201 40.5739 54.7355 40.2386 55.1503C39.9034 55.5593 39.7216 56.0537 39.6932 56.6332H37.6477C37.6818 55.7184 37.9574 54.9173 38.4744 54.2298C38.9915 53.5366 39.6676 52.9968 40.5028 52.6105C41.3438 52.2241 42.267 52.0309 43.2727 52.0309C44.3523 52.0309 45.2784 52.2497 46.0511 52.6872C46.8239 53.119 47.4176 53.69 47.8324 54.4003C48.2472 55.1105 48.4545 55.8775 48.4545 56.7014C48.4545 57.6843 48.196 58.5224 47.679 59.2156C47.1676 59.9088 46.4716 60.3889 45.5909 60.6559V60.7923C46.6932 60.9741 47.554 61.4429 48.1733 62.1986C48.7926 62.9486 49.1023 63.8775 49.1023 64.9855C49.1023 65.9343 48.8438 66.7866 48.3267 67.5423C47.8153 68.2923 47.1165 68.8832 46.2301 69.315C45.3438 69.7468 44.3352 69.9628 43.2045 69.9628ZM58.7244 52.2696V69.7241H56.6108V54.4855H56.5085L52.2472 57.315V55.1673L56.6108 52.2696H58.7244ZM72.642 66.4514V65.5309C72.642 64.8946 72.7727 64.3122 73.0341 63.7838C73.3011 63.2497 73.6875 62.8236 74.1932 62.5054C74.7045 62.1815 75.3239 62.0196 76.0511 62.0196C76.7898 62.0196 77.4091 62.1815 77.9091 62.5054C78.4091 62.8236 78.7869 63.2497 79.0426 63.7838C79.2983 64.3122 79.4261 64.8946 79.4261 65.5309V66.4514C79.4261 67.0878 79.2955 67.673 79.0341 68.2071C78.7784 68.7355 78.3977 69.1616 77.892 69.4855C77.392 69.8037 76.7784 69.9628 76.0511 69.9628C75.3125 69.9628 74.6903 69.8037 74.1847 69.4855C73.679 69.1616 73.2955 68.7355 73.0341 68.2071C72.7727 67.673 72.642 67.0878 72.642 66.4514ZM74.3807 65.5309V66.4514C74.3807 66.9798 74.5057 67.4542 74.7557 67.8747C75.0057 68.2895 75.4375 68.4968 76.0511 68.4968C76.6477 68.4968 77.0682 68.2895 77.3125 67.8747C77.5625 67.4542 77.6875 66.9798 77.6875 66.4514V65.5309C77.6875 65.0025 77.5682 64.5309 77.3295 64.1162C77.0909 63.6957 76.6648 63.4855 76.0511 63.4855C75.4545 63.4855 75.0256 63.6957 74.7642 64.1162C74.5085 64.5309 74.3807 65.0025 74.3807 65.5309ZM63.9489 56.4628V55.5423C63.9489 54.9059 64.0795 54.3236 64.3409 53.7951C64.608 53.2611 64.9943 52.8349 65.5 52.5167C66.0114 52.1929 66.6307 52.0309 67.358 52.0309C68.0966 52.0309 68.7159 52.1929 69.2159 52.5167C69.7159 52.8349 70.0938 53.2611 70.3494 53.7951C70.6051 54.3236 70.733 54.9059 70.733 55.5423V56.4628C70.733 57.0991 70.6023 57.6843 70.3409 58.2184C70.0852 58.7468 69.7045 59.173 69.1989 59.4968C68.6989 59.815 68.0852 59.9741 67.358 59.9741C66.6193 59.9741 65.9972 59.815 65.4915 59.4968C64.9858 59.173 64.6023 58.7468 64.3409 58.2184C64.0795 57.6843 63.9489 57.0991 63.9489 56.4628ZM65.6875 55.5423V56.4628C65.6875 56.9912 65.8125 57.4656 66.0625 57.8861C66.3125 58.3008 66.7443 58.5082 67.358 58.5082C67.9545 58.5082 68.375 58.3008 68.6193 57.8861C68.8693 57.4656 68.9943 56.9912 68.9943 56.4628V55.5423C68.9943 55.0139 68.875 54.5423 68.6364 54.1275C68.3977 53.7071 67.9716 53.4968 67.358 53.4968C66.7614 53.4968 66.3324 53.7071 66.071 54.1275C65.8153 54.5423 65.6875 55.0139 65.6875 55.5423ZM64.5966 69.7241L76.5966 52.2696H78.5398L66.5398 69.7241H64.5966Z" fill="#101828"/>
</svg>
