<svg width="121" height="121" viewBox="0 0 121 121" fill="none" xmlns="http://www.w3.org/2000/svg">
<path d="M120.4 60.7241C120.4 93.8612 93.5371 120.724 60.4 120.724C27.2629 120.724 0.400024 93.8612 0.400024 60.7241C0.400024 27.587 27.2629 0.724121 60.4 0.724121C93.5371 0.724121 120.4 27.587 120.4 60.7241ZM15.4 60.7241C15.4 85.5769 35.5472 105.724 60.4 105.724C85.2528 105.724 105.4 85.5769 105.4 60.7241C105.4 35.8713 85.2528 15.7241 60.4 15.7241C35.5472 15.7241 15.4 35.8713 15.4 60.7241Z" fill="#F2F4F7"/>
<path d="M60.4 0.724121C69.5502 0.724121 78.5792 2.81693 86.7964 6.84247C95.0135 10.868 102.201 16.7196 107.809 23.9497C113.418 31.1798 117.298 39.5968 119.153 48.5569C121.009 57.517 120.791 66.7828 118.515 75.6455C116.239 84.5082 111.967 92.7331 106.024 99.691C100.082 106.649 92.6266 112.155 84.2289 115.789C75.8313 119.423 66.7137 121.089 57.5737 120.658C48.4336 120.226 39.5132 117.711 31.4948 113.303L38.7211 100.158C44.7349 103.464 51.4252 105.351 58.2803 105.674C65.1353 105.997 71.9735 104.749 78.2717 102.023C84.5699 99.2976 90.1614 95.1677 94.6183 89.9493C99.0752 84.7309 102.28 78.5622 103.986 71.9152C105.693 65.2681 105.857 58.3188 104.465 51.5987C103.073 44.8786 100.163 38.5659 95.957 33.1433C91.7508 27.7207 86.3601 23.332 80.1973 20.3129C74.0344 17.2937 67.2627 15.7241 60.4 15.7241V0.724121Z" fill="#244E5A"/>
<path d="M46.903 119.186C34.557 116.336 23.4303 109.65 15.1175 100.088C6.80478 90.5251 1.73275 78.5762 0.628366 65.9537L15.5713 64.6463C16.3996 74.1132 20.2036 83.0748 26.4382 90.2469C32.6727 97.4189 41.0178 102.433 50.2772 104.571L46.903 119.186Z" fill="#FF9E1B"/>
<path d="M1.50239 72.1727C-0.670096 60.9962 0.382301 49.4322 4.53666 38.8315C8.69103 28.2308 15.7759 19.031 24.9636 12.3065L33.8227 24.4109C26.9319 29.4543 21.6183 36.3542 18.5025 44.3047C15.3867 52.2552 14.5974 60.9282 16.2268 69.3105L1.50239 72.1727Z" fill="#931E42"/>
<path d="M43.2045 69.9628C42.0795 69.9628 41.0767 69.7696 40.196 69.3832C39.321 68.9968 38.625 68.4599 38.108 67.7724C37.5966 67.0792 37.3182 66.2753 37.2727 65.3605H39.4205C39.4659 65.923 39.6591 66.4088 40 66.8179C40.3409 67.2213 40.7869 67.5338 41.3381 67.7554C41.8892 67.977 42.5 68.0878 43.1705 68.0878C43.9205 68.0878 44.5852 67.9571 45.1648 67.6957C45.7443 67.4343 46.1989 67.0707 46.5284 66.6048C46.858 66.1389 47.0227 65.5991 47.0227 64.9855C47.0227 64.3434 46.8636 63.7781 46.5455 63.2895C46.2273 62.7951 45.7614 62.4088 45.1477 62.1304C44.5341 61.852 43.7841 61.7128 42.8977 61.7128H41.5V59.8378H42.8977C43.5909 59.8378 44.1989 59.7128 44.7216 59.4628C45.25 59.2128 45.6619 58.8605 45.9574 58.4059C46.2585 57.9514 46.4091 57.4173 46.4091 56.8037C46.4091 56.2128 46.2784 55.6986 46.017 55.2611C45.7557 54.8236 45.3864 54.4826 44.9091 54.2383C44.4375 53.994 43.8807 53.8718 43.2386 53.8718C42.6364 53.8718 42.0682 53.9826 41.5341 54.2042C41.0057 54.4201 40.5739 54.7355 40.2386 55.1503C39.9034 55.5593 39.7216 56.0537 39.6932 56.6332H37.6477C37.6818 55.7184 37.9574 54.9173 38.4744 54.2298C38.9915 53.5366 39.6676 52.9968 40.5028 52.6105C41.3438 52.2241 42.267 52.0309 43.2727 52.0309C44.3523 52.0309 45.2784 52.2497 46.0511 52.6872C46.8239 53.119 47.4176 53.69 47.8324 54.4003C48.2472 55.1105 48.4545 55.8775 48.4545 56.7014C48.4545 57.6843 48.196 58.5224 47.679 59.2156C47.1676 59.9088 46.4716 60.3889 45.5909 60.6559V60.7923C46.6932 60.9741 47.554 61.4429 48.1733 62.1986C48.7926 62.9486 49.1023 63.8775 49.1023 64.9855C49.1023 65.9343 48.8438 66.7866 48.3267 67.5423C47.8153 68.2923 47.1165 68.8832 46.2301 69.315C45.3438 69.7468 44.3352 69.9628 43.2045 69.9628ZM58.0426 69.9628C57.0426 69.9628 56.142 69.7639 55.3409 69.3662C54.5398 68.9684 53.8977 68.423 53.4148 67.7298C52.9318 67.0366 52.6676 66.2468 52.6222 65.3605H54.6676C54.7472 66.1503 55.1051 66.8037 55.7415 67.3207C56.3835 67.8321 57.1506 68.0878 58.0426 68.0878C58.7585 68.0878 59.3949 67.9201 59.9517 67.5849C60.5142 67.2497 60.9545 66.7895 61.2727 66.2042C61.5966 65.6133 61.7585 64.9457 61.7585 64.2014C61.7585 63.44 61.5909 62.7611 61.2557 62.1645C60.9261 61.5622 60.4716 61.0878 59.892 60.7412C59.3125 60.3946 58.6506 60.2184 57.9062 60.2128C57.3722 60.2071 56.8239 60.2895 56.2614 60.4599C55.6989 60.6247 55.2358 60.8378 54.8722 61.0991L52.8949 60.8605L53.9517 52.2696H63.0199V54.1446H55.7244L55.1108 59.2923H55.2131C55.571 59.0082 56.0199 58.7724 56.5597 58.5849C57.0994 58.3974 57.6619 58.3037 58.2472 58.3037C59.3153 58.3037 60.267 58.5593 61.1023 59.0707C61.9432 59.5764 62.6023 60.2696 63.0795 61.1503C63.5625 62.0309 63.804 63.0366 63.804 64.1673C63.804 65.2809 63.554 66.2753 63.054 67.1503C62.5597 68.0196 61.8778 68.7071 61.0085 69.2128C60.1392 69.7128 59.1506 69.9628 58.0426 69.9628ZM76.0874 66.4514V65.5309C76.0874 64.8946 76.218 64.3122 76.4794 63.7838C76.7464 63.2497 77.1328 62.8236 77.6385 62.5054C78.1499 62.1815 78.7692 62.0196 79.4964 62.0196C80.2351 62.0196 80.8544 62.1815 81.3544 62.5054C81.8544 62.8236 82.2322 63.2497 82.4879 63.7838C82.7436 64.3122 82.8714 64.8946 82.8714 65.5309V66.4514C82.8714 67.0878 82.7408 67.673 82.4794 68.2071C82.2237 68.7355 81.843 69.1616 81.3374 69.4855C80.8374 69.8037 80.2237 69.9628 79.4964 69.9628C78.7578 69.9628 78.1357 69.8037 77.63 69.4855C77.1243 69.1616 76.7408 68.7355 76.4794 68.2071C76.218 67.673 76.0874 67.0878 76.0874 66.4514ZM77.826 65.5309V66.4514C77.826 66.9798 77.951 67.4542 78.201 67.8747C78.451 68.2895 78.8828 68.4968 79.4964 68.4968C80.093 68.4968 80.5135 68.2895 80.7578 67.8747C81.0078 67.4542 81.1328 66.9798 81.1328 66.4514V65.5309C81.1328 65.0025 81.0135 64.5309 80.7749 64.1162C80.5362 63.6957 80.1101 63.4855 79.4964 63.4855C78.8999 63.4855 78.4709 63.6957 78.2095 64.1162C77.9538 64.5309 77.826 65.0025 77.826 65.5309ZM67.3942 56.4628V55.5423C67.3942 54.9059 67.5249 54.3236 67.7862 53.7951C68.0533 53.2611 68.4396 52.8349 68.9453 52.5167C69.4567 52.1929 70.076 52.0309 70.8033 52.0309C71.5419 52.0309 72.1612 52.1929 72.6612 52.5167C73.1612 52.8349 73.5391 53.2611 73.7947 53.7951C74.0504 54.3236 74.1783 54.9059 74.1783 55.5423V56.4628C74.1783 57.0991 74.0476 57.6843 73.7862 58.2184C73.5305 58.7468 73.1499 59.173 72.6442 59.4968C72.1442 59.815 71.5305 59.9741 70.8033 59.9741C70.0646 59.9741 69.4425 59.815 68.9368 59.4968C68.4311 59.173 68.0476 58.7468 67.7862 58.2184C67.5249 57.6843 67.3942 57.0991 67.3942 56.4628ZM69.1328 55.5423V56.4628C69.1328 56.9912 69.2578 57.4656 69.5078 57.8861C69.7578 58.3008 70.1896 58.5082 70.8033 58.5082C71.3999 58.5082 71.8203 58.3008 72.0646 57.8861C72.3146 57.4656 72.4396 56.9912 72.4396 56.4628V55.5423C72.4396 55.0139 72.3203 54.5423 72.0817 54.1275C71.843 53.7071 71.4169 53.4968 70.8033 53.4968C70.2067 53.4968 69.7777 53.7071 69.5163 54.1275C69.2607 54.5423 69.1328 55.0139 69.1328 55.5423ZM68.0419 69.7241L80.0419 52.2696H81.9851L69.9851 69.7241H68.0419Z" fill="#101828"/>
</svg>
