<svg width="121" height="121" viewBox="0 0 121 121" fill="none" xmlns="http://www.w3.org/2000/svg">
<path d="M120.2 60.7241C120.2 93.8612 93.337 120.724 60.2 120.724C27.0629 120.724 0.199951 93.8612 0.199951 60.7241C0.199951 27.587 27.0629 0.724121 60.2 0.724121C93.337 0.724121 120.2 27.587 120.2 60.7241ZM15.2 60.7241C15.2 85.5769 35.3471 105.724 60.2 105.724C85.0528 105.724 105.2 85.5769 105.2 60.7241C105.2 35.8713 85.0528 15.7241 60.2 15.7241C35.3471 15.7241 15.2 35.8713 15.2 60.7241Z" fill="#F2F4F7"/>
<path d="M60.2 0.724121C72.8707 0.724121 85.2162 4.73542 95.4671 12.1831C105.718 19.6308 113.348 30.1325 117.263 42.1831L102.997 46.8184C100.061 37.7804 94.3384 29.9041 86.6503 24.3184C78.9621 18.7326 69.703 15.7241 60.2 15.7241V0.724121Z" fill="#244E5A"/>
<path d="M117.263 42.1831C119.747 49.8276 120.67 57.8933 119.976 65.9013C119.283 73.9093 116.987 81.6963 113.226 88.7999C109.465 95.9036 104.315 102.179 98.0811 107.254C91.8477 112.329 84.6582 116.099 76.9394 118.342C69.2206 120.584 61.1299 121.253 53.1477 120.308C45.1655 119.363 37.4544 116.824 30.4724 112.842C23.4904 108.86 17.3798 103.515 12.5033 97.1251C7.62681 90.7353 4.08392 83.4309 2.08496 75.6455L16.6137 71.9152C18.1129 77.7542 20.7701 83.2325 24.4275 88.0248C28.0848 92.8171 32.6678 96.8257 37.9043 99.8125C43.1408 102.799 48.9241 104.704 54.9108 105.412C60.8974 106.121 66.9655 105.619 72.7546 103.937C78.5436 102.255 83.9358 99.4275 88.6108 95.6214C93.2859 91.8153 97.1485 87.1087 99.9694 81.781C102.79 76.4532 104.512 70.613 105.032 64.607C105.552 58.601 104.86 52.5518 102.997 46.8184L117.263 42.1831Z" fill="#FF9E1B"/>
<path d="M1.98221 75.2394C-0.30846 66.0521 -0.392229 56.453 1.73775 47.2271C3.86773 38.0011 8.15098 29.4102 14.2373 22.1569L25.728 31.7987C21.1632 37.2387 17.9508 43.6819 16.3533 50.6013C14.7558 57.5208 14.8186 64.7201 16.5366 71.6106L1.98221 75.2394Z" fill="#931E42"/>
<path d="M37.3068 69.7241V68.19L43.0682 61.8832C43.7443 61.1446 44.3011 60.5025 44.7386 59.9571C45.1761 59.4059 45.5 58.8889 45.7102 58.4059C45.9261 57.9173 46.0341 57.4059 46.0341 56.8718C46.0341 56.2582 45.8864 55.727 45.5909 55.2781C45.3011 54.8292 44.9034 54.4826 44.3977 54.2383C43.892 53.994 43.3239 53.8718 42.6932 53.8718C42.0227 53.8718 41.4375 54.0111 40.9375 54.2895C40.4432 54.5622 40.0597 54.9457 39.7869 55.44C39.5199 55.9343 39.3864 56.5139 39.3864 57.1787H37.375C37.375 56.1559 37.6108 55.2582 38.0824 54.4855C38.554 53.7128 39.196 53.1105 40.0085 52.6787C40.8267 52.2468 41.7443 52.0309 42.7614 52.0309C43.7841 52.0309 44.6903 52.2468 45.4801 52.6787C46.2699 53.1105 46.8892 53.6929 47.3381 54.4258C47.7869 55.1588 48.0114 55.9741 48.0114 56.8718C48.0114 57.5139 47.8949 58.1417 47.6619 58.7554C47.4347 59.3633 47.0369 60.0423 46.4688 60.7923C45.9062 61.5366 45.125 62.4457 44.125 63.5196L40.2045 67.7128V67.8491H48.3182V69.7241H37.3068ZM51.054 66.1446V64.4059L58.7244 52.2696H59.9858V54.9628H59.1335L53.3381 64.1332V64.2696H63.6676V66.1446H51.054ZM59.2699 69.7241V65.6162V64.8065V52.2696H61.2812V69.7241H59.2699ZM75.7592 66.4514V65.5309C75.7592 64.8946 75.8899 64.3122 76.1513 63.7838C76.4183 63.2497 76.8047 62.8236 77.3104 62.5054C77.8217 62.1815 78.4411 62.0196 79.1683 62.0196C79.907 62.0196 80.5263 62.1815 81.0263 62.5054C81.5263 62.8236 81.9041 63.2497 82.1598 63.7838C82.4155 64.3122 82.5433 64.8946 82.5433 65.5309V66.4514C82.5433 67.0878 82.4126 67.673 82.1513 68.2071C81.8956 68.7355 81.5149 69.1616 81.0092 69.4855C80.5092 69.8037 79.8956 69.9628 79.1683 69.9628C78.4297 69.9628 77.8075 69.8037 77.3018 69.4855C76.7962 69.1616 76.4126 68.7355 76.1513 68.2071C75.8899 67.673 75.7592 67.0878 75.7592 66.4514ZM77.4979 65.5309V66.4514C77.4979 66.9798 77.6229 67.4542 77.8729 67.8747C78.1229 68.2895 78.5547 68.4968 79.1683 68.4968C79.7649 68.4968 80.1854 68.2895 80.4297 67.8747C80.6797 67.4542 80.8047 66.9798 80.8047 66.4514V65.5309C80.8047 65.0025 80.6854 64.5309 80.4467 64.1162C80.2081 63.6957 79.782 63.4855 79.1683 63.4855C78.5717 63.4855 78.1428 63.6957 77.8814 64.1162C77.6257 64.5309 77.4979 65.0025 77.4979 65.5309ZM67.0661 56.4628V55.5423C67.0661 54.9059 67.1967 54.3236 67.4581 53.7951C67.7251 53.2611 68.1115 52.8349 68.6172 52.5167C69.1286 52.1929 69.7479 52.0309 70.4751 52.0309C71.2138 52.0309 71.8331 52.1929 72.3331 52.5167C72.8331 52.8349 73.2109 53.2611 73.4666 53.7951C73.7223 54.3236 73.8501 54.9059 73.8501 55.5423V56.4628C73.8501 57.0991 73.7195 57.6843 73.4581 58.2184C73.2024 58.7468 72.8217 59.173 72.3161 59.4968C71.8161 59.815 71.2024 59.9741 70.4751 59.9741C69.7365 59.9741 69.1143 59.815 68.6087 59.4968C68.103 59.173 67.7195 58.7468 67.4581 58.2184C67.1967 57.6843 67.0661 57.0991 67.0661 56.4628ZM68.8047 55.5423V56.4628C68.8047 56.9912 68.9297 57.4656 69.1797 57.8861C69.4297 58.3008 69.8615 58.5082 70.4751 58.5082C71.0717 58.5082 71.4922 58.3008 71.7365 57.8861C71.9865 57.4656 72.1115 56.9912 72.1115 56.4628V55.5423C72.1115 55.0139 71.9922 54.5423 71.7536 54.1275C71.5149 53.7071 71.0888 53.4968 70.4751 53.4968C69.8786 53.4968 69.4496 53.7071 69.1882 54.1275C68.9325 54.5423 68.8047 55.0139 68.8047 55.5423ZM67.7138 69.7241L79.7138 52.2696H81.657L69.657 69.7241H67.7138Z" fill="#101828"/>
</svg>
