<svg width="18" height="17" viewBox="0 0 18 17" fill="none" xmlns="http://www.w3.org/2000/svg">
<path d="M16.625 14.5991C17.0938 15.0991 17.0938 15.8804 16.625 16.3804C16.125 16.8491 15.3438 16.8491 14.8438 16.3804L11.125 12.6304C9.84375 13.4741 8.28125 13.9116 6.59375 13.6929C3.71875 13.2866 1.40625 10.9429 1.03125 8.09912C0.5 3.84912 4.09375 0.255371 8.34375 0.786621C11.1875 1.16162 13.5312 3.47412 13.9375 6.34912C14.1562 8.03662 13.7188 9.59912 12.875 10.8491L16.625 14.5991ZM3.46875 7.22412C3.46875 9.44287 5.25 11.2241 7.46875 11.2241C9.65625 11.2241 11.4688 9.44287 11.4688 7.22412C11.4688 5.03662 9.65625 3.22412 7.46875 3.22412C5.25 3.22412 3.46875 5.03662 3.46875 7.22412Z" fill="#DCDADA"/>
</svg>
