<svg width="120" height="121" viewBox="0 0 120 121" fill="none" xmlns="http://www.w3.org/2000/svg">
<path d="M120 60.7241C120 93.8612 93.1371 120.724 60 120.724C26.8629 120.724 0 93.8612 0 60.7241C0 27.587 26.8629 0.724121 60 0.724121C93.1371 0.724121 120 27.587 120 60.7241ZM15 60.7241C15 85.5769 35.1472 105.724 60 105.724C84.8528 105.724 105 85.5769 105 60.7241C105 35.8713 84.8528 15.7241 60 15.7241C35.1472 15.7241 15 35.8713 15 60.7241Z" fill="#F2F4F7"/>
<path d="M60 0.724121C72.6708 0.724121 85.0163 4.73542 95.2671 12.1831C105.518 19.6308 113.148 30.1325 117.063 42.1831L102.798 46.8184C99.8609 37.7804 94.1385 29.9041 86.4503 24.3184C78.7622 18.7326 69.5031 15.7241 60 15.7241V0.724121Z" fill="#244E5A"/>
<path d="M117.063 42.1831C120.483 52.7069 120.925 63.9712 118.342 74.7308C115.759 85.4904 110.251 95.3261 102.426 103.151C94.602 110.975 84.7663 116.483 74.0067 119.066C63.2471 121.649 51.9828 121.207 41.459 117.788L46.0943 103.522C53.9871 106.086 62.4354 106.418 70.5051 104.481C78.5748 102.543 85.9515 98.4122 91.8198 92.5439C97.6881 86.6756 101.819 79.2989 103.757 71.2292C105.694 63.1595 105.362 54.7112 102.798 46.8184L117.063 42.1831Z" fill="#FF9E1B"/>
<path d="M41.459 117.788C32.1507 114.763 23.7235 109.507 16.9124 102.479C10.1013 95.4503 5.11296 86.8623 2.38238 77.4636C-0.348201 68.0649 -0.738115 58.1409 1.24663 48.5569C3.23138 38.9729 7.53053 30.0199 13.7692 22.4787L25.3269 32.04C20.6479 37.696 17.4235 44.4107 15.935 51.5987C14.4464 58.7867 14.7388 66.2297 16.7868 73.2787C18.8347 80.3278 22.576 86.7688 27.6843 92.0402C32.7927 97.3116 39.113 101.253 46.0942 103.522L41.459 117.788Z" fill="#931E42"/>
<path d="M37.3068 69.7241V68.19L43.0682 61.8832C43.7443 61.1446 44.3011 60.5025 44.7386 59.9571C45.1761 59.4059 45.5 58.8889 45.7102 58.4059C45.9261 57.9173 46.0341 57.4059 46.0341 56.8718C46.0341 56.2582 45.8864 55.727 45.5909 55.2781C45.3011 54.8292 44.9034 54.4826 44.3977 54.2383C43.892 53.994 43.3239 53.8718 42.6932 53.8718C42.0227 53.8718 41.4375 54.0111 40.9375 54.2895C40.4432 54.5622 40.0597 54.9457 39.7869 55.44C39.5199 55.9343 39.3864 56.5139 39.3864 57.1787H37.375C37.375 56.1559 37.6108 55.2582 38.0824 54.4855C38.554 53.7128 39.196 53.1105 40.0085 52.6787C40.8267 52.2468 41.7443 52.0309 42.7614 52.0309C43.7841 52.0309 44.6903 52.2468 45.4801 52.6787C46.2699 53.1105 46.8892 53.6929 47.3381 54.4258C47.7869 55.1588 48.0114 55.9741 48.0114 56.8718C48.0114 57.5139 47.8949 58.1417 47.6619 58.7554C47.4347 59.3633 47.0369 60.0423 46.4688 60.7923C45.9062 61.5366 45.125 62.4457 44.125 63.5196L40.2045 67.7128V67.8491H48.3182V69.7241H37.3068ZM57.6335 69.9628C56.9176 69.9514 56.2017 69.815 55.4858 69.5537C54.7699 69.2923 54.1165 68.852 53.5256 68.2326C52.9347 67.6076 52.4602 66.7639 52.1023 65.7014C51.7443 64.6332 51.5653 63.2923 51.5653 61.6787C51.5653 60.1332 51.7102 58.7639 52 57.5707C52.2898 56.3718 52.7102 55.3633 53.2614 54.5451C53.8125 53.7213 54.4773 53.0963 55.2557 52.6701C56.0398 52.244 56.9233 52.0309 57.9062 52.0309C58.8835 52.0309 59.7528 52.227 60.5142 52.619C61.2813 53.0054 61.9063 53.5451 62.3892 54.2383C62.8722 54.9315 63.1847 55.7298 63.3267 56.6332H61.2472C61.054 55.8491 60.679 55.1986 60.1222 54.6815C59.5653 54.1645 58.8267 53.9059 57.9062 53.9059C56.554 53.9059 55.4886 54.494 54.7102 55.6701C53.9375 56.8463 53.5483 58.4968 53.5426 60.6218H53.679C53.9972 60.1389 54.375 59.727 54.8125 59.3861C55.2557 59.0395 55.7443 58.7724 56.2784 58.5849C56.8125 58.3974 57.3778 58.3037 57.9744 58.3037C58.9744 58.3037 59.8892 58.5537 60.7188 59.0537C61.5483 59.548 62.2131 60.2326 62.7131 61.1076C63.2131 61.977 63.4631 62.9741 63.4631 64.0991C63.4631 65.1787 63.2216 66.1673 62.7386 67.065C62.2557 67.9571 61.5767 68.6673 60.7017 69.1957C59.8324 69.7184 58.8097 69.9741 57.6335 69.9628ZM57.6335 68.0878C58.3494 68.0878 58.9915 67.9088 59.5597 67.5508C60.1335 67.1929 60.5852 66.7128 60.9148 66.1105C61.25 65.5082 61.4176 64.8378 61.4176 64.0991C61.4176 63.3775 61.2557 62.7213 60.9318 62.1304C60.6136 61.5338 60.1733 61.0593 59.6108 60.7071C59.054 60.3548 58.4176 60.1787 57.7017 60.1787C57.1619 60.1787 56.6591 60.2866 56.1932 60.5025C55.7273 60.7128 55.3182 61.0025 54.9659 61.3718C54.6193 61.7412 54.3466 62.1645 54.1477 62.6417C53.9489 63.1133 53.8494 63.6105 53.8494 64.1332C53.8494 64.8264 54.0114 65.4741 54.3352 66.0764C54.6648 66.6787 55.1136 67.1645 55.6818 67.5338C56.2557 67.9031 56.9062 68.0878 57.6335 68.0878ZM75.7124 66.4514V65.5309C75.7124 64.8946 75.843 64.3122 76.1044 63.7838C76.3714 63.2497 76.7578 62.8236 77.2635 62.5054C77.7749 62.1815 78.3942 62.0196 79.1214 62.0196C79.8601 62.0196 80.4794 62.1815 80.9794 62.5054C81.4794 62.8236 81.8572 63.2497 82.1129 63.7838C82.3686 64.3122 82.4964 64.8946 82.4964 65.5309V66.4514C82.4964 67.0878 82.3658 67.673 82.1044 68.2071C81.8487 68.7355 81.468 69.1616 80.9624 69.4855C80.4624 69.8037 79.8487 69.9628 79.1214 69.9628C78.3828 69.9628 77.7607 69.8037 77.255 69.4855C76.7493 69.1616 76.3658 68.7355 76.1044 68.2071C75.843 67.673 75.7124 67.0878 75.7124 66.4514ZM77.451 65.5309V66.4514C77.451 66.9798 77.576 67.4542 77.826 67.8747C78.076 68.2895 78.5078 68.4968 79.1214 68.4968C79.718 68.4968 80.1385 68.2895 80.3828 67.8747C80.6328 67.4542 80.7578 66.9798 80.7578 66.4514V65.5309C80.7578 65.0025 80.6385 64.5309 80.3999 64.1162C80.1612 63.6957 79.7351 63.4855 79.1214 63.4855C78.5249 63.4855 78.0959 63.6957 77.8345 64.1162C77.5788 64.5309 77.451 65.0025 77.451 65.5309ZM67.0192 56.4628V55.5423C67.0192 54.9059 67.1499 54.3236 67.4112 53.7951C67.6783 53.2611 68.0646 52.8349 68.5703 52.5167C69.0817 52.1929 69.701 52.0309 70.4283 52.0309C71.1669 52.0309 71.7862 52.1929 72.2862 52.5167C72.7862 52.8349 73.1641 53.2611 73.4197 53.7951C73.6754 54.3236 73.8033 54.9059 73.8033 55.5423V56.4628C73.8033 57.0991 73.6726 57.6843 73.4112 58.2184C73.1555 58.7468 72.7749 59.173 72.2692 59.4968C71.7692 59.815 71.1555 59.9741 70.4283 59.9741C69.6896 59.9741 69.0675 59.815 68.5618 59.4968C68.0561 59.173 67.6726 58.7468 67.4112 58.2184C67.1499 57.6843 67.0192 57.0991 67.0192 56.4628ZM68.7578 55.5423V56.4628C68.7578 56.9912 68.8828 57.4656 69.1328 57.8861C69.3828 58.3008 69.8146 58.5082 70.4283 58.5082C71.0249 58.5082 71.4453 58.3008 71.6896 57.8861C71.9396 57.4656 72.0646 56.9912 72.0646 56.4628V55.5423C72.0646 55.0139 71.9453 54.5423 71.7067 54.1275C71.468 53.7071 71.0419 53.4968 70.4283 53.4968C69.8317 53.4968 69.4027 53.7071 69.1413 54.1275C68.8857 54.5423 68.7578 55.0139 68.7578 55.5423ZM67.6669 69.7241L79.6669 52.2696H81.6101L69.6101 69.7241H67.6669Z" fill="#101828"/>
</svg>
