<svg width="121" height="121" viewBox="0 0 121 121" fill="none" xmlns="http://www.w3.org/2000/svg">
<path d="M120.6 60.7241C120.6 93.8612 93.7371 120.724 60.6 120.724C27.4629 120.724 0.599976 93.8612 0.599976 60.7241C0.599976 27.587 27.4629 0.724121 60.6 0.724121C93.7371 0.724121 120.6 27.587 120.6 60.7241ZM15.6 60.7241C15.6 85.5769 35.7472 105.724 60.6 105.724C85.4528 105.724 105.6 85.5769 105.6 60.7241C105.6 35.8713 85.4528 15.7241 60.6 15.7241C35.7472 15.7241 15.6 35.8713 15.6 60.7241Z" fill="#F2F4F7"/>
<path d="M60.6 0.724121C75.8608 0.724121 90.5481 6.53926 101.673 16.986C112.797 27.4328 119.523 41.726 120.482 56.9567C121.44 72.1874 116.558 87.2109 106.831 98.9696C97.1031 110.728 83.2604 118.338 68.1199 120.251L66.24 105.369C77.5953 103.935 87.9774 98.2272 95.2731 89.4082C102.569 80.5892 106.23 69.3216 105.511 57.8986C104.793 46.4755 99.7481 35.7556 91.4046 27.9205C83.0611 20.0855 72.0456 15.7241 60.6 15.7241V0.724121Z" fill="#244E5A"/>
<path d="M68.9504 120.14C59.2583 121.502 49.3802 120.473 40.1773 117.141C30.9744 113.81 22.7261 108.278 16.1518 101.027C9.57743 93.777 4.87657 85.0283 2.45908 75.5443C0.0415933 66.0602 -0.019114 56.1287 2.28225 46.6159L16.8617 50.1429C15.1357 57.2776 15.1812 64.7262 16.9943 71.8392C18.8074 78.9523 22.3331 85.5138 27.2638 90.9516C32.1946 96.3895 38.3808 100.539 45.2829 103.037C52.1851 105.536 59.5937 106.308 66.8628 105.286L68.9504 120.14Z" fill="#FF9E1B"/>
<path d="M1.51151 50.3052C3.71177 37.827 9.80589 26.3656 18.9205 17.5637L29.3403 28.3538C22.5044 34.9552 17.9338 43.5513 16.2836 52.9099L1.51151 50.3052Z" fill="#931E42"/>
<path d="M38.3068 69.7241V68.19L44.0682 61.8832C44.7443 61.1446 45.3011 60.5025 45.7386 59.9571C46.1761 59.4059 46.5 58.8889 46.7102 58.4059C46.9261 57.9173 47.0341 57.4059 47.0341 56.8718C47.0341 56.2582 46.8864 55.727 46.5909 55.2781C46.3011 54.8292 45.9034 54.4826 45.3977 54.2383C44.892 53.994 44.3239 53.8718 43.6932 53.8718C43.0227 53.8718 42.4375 54.0111 41.9375 54.2895C41.4432 54.5622 41.0597 54.9457 40.7869 55.44C40.5199 55.9343 40.3864 56.5139 40.3864 57.1787H38.375C38.375 56.1559 38.6108 55.2582 39.0824 54.4855C39.554 53.7128 40.196 53.1105 41.0085 52.6787C41.8267 52.2468 42.7443 52.0309 43.7614 52.0309C44.7841 52.0309 45.6903 52.2468 46.4801 52.6787C47.2699 53.1105 47.8892 53.6929 48.3381 54.4258C48.7869 55.1588 49.0114 55.9741 49.0114 56.8718C49.0114 57.5139 48.8949 58.1417 48.6619 58.7554C48.4347 59.3633 48.0369 60.0423 47.4688 60.7923C46.9062 61.5366 46.125 62.4457 45.125 63.5196L41.2045 67.7128V67.8491H49.3182V69.7241H38.3068ZM58.7358 69.9628C57.6108 69.9628 56.608 69.7696 55.7273 69.3832C54.8523 68.9968 54.1563 68.4599 53.6392 67.7724C53.1278 67.0792 52.8494 66.2753 52.804 65.3605H54.9517C54.9972 65.923 55.1903 66.4088 55.5312 66.8179C55.8722 67.2213 56.3182 67.5338 56.8693 67.7554C57.4205 67.977 58.0313 68.0878 58.7017 68.0878C59.4517 68.0878 60.1165 67.9571 60.696 67.6957C61.2756 67.4343 61.7301 67.0707 62.0597 66.6048C62.3892 66.1389 62.554 65.5991 62.554 64.9855C62.554 64.3434 62.3949 63.7781 62.0767 63.2895C61.7585 62.7951 61.2926 62.4088 60.679 62.1304C60.0653 61.852 59.3153 61.7128 58.429 61.7128H57.0312V59.8378H58.429C59.1222 59.8378 59.7301 59.7128 60.2528 59.4628C60.7813 59.2128 61.1932 58.8605 61.4886 58.4059C61.7898 57.9514 61.9403 57.4173 61.9403 56.8037C61.9403 56.2128 61.8097 55.6986 61.5483 55.2611C61.2869 54.8236 60.9176 54.4826 60.4403 54.2383C59.9688 53.994 59.4119 53.8718 58.7699 53.8718C58.1676 53.8718 57.5994 53.9826 57.0653 54.2042C56.5369 54.4201 56.1051 54.7355 55.7699 55.1503C55.4347 55.5593 55.2528 56.0537 55.2244 56.6332H53.179C53.2131 55.7184 53.4886 54.9173 54.0057 54.2298C54.5227 53.5366 55.1989 52.9968 56.0341 52.6105C56.875 52.2241 57.7983 52.0309 58.804 52.0309C59.8835 52.0309 60.8097 52.2497 61.5824 52.6872C62.3551 53.119 62.9489 53.69 63.3636 54.4003C63.7784 55.1105 63.9858 55.8775 63.9858 56.7014C63.9858 57.6843 63.7273 58.5224 63.2102 59.2156C62.6989 59.9088 62.0028 60.3889 61.1222 60.6559V60.7923C62.2244 60.9741 63.0852 61.4429 63.7045 62.1986C64.3239 62.9486 64.6335 63.8775 64.6335 64.9855C64.6335 65.9343 64.375 66.7866 63.858 67.5423C63.3466 68.2923 62.6477 68.8832 61.7614 69.315C60.875 69.7468 59.8665 69.9628 58.7358 69.9628ZM77.017 66.4514V65.5309C77.017 64.8946 77.1477 64.3122 77.4091 63.7838C77.6761 63.2497 78.0625 62.8236 78.5682 62.5054C79.0795 62.1815 79.6989 62.0196 80.4261 62.0196C81.1648 62.0196 81.7841 62.1815 82.2841 62.5054C82.7841 62.8236 83.1619 63.2497 83.4176 63.7838C83.6733 64.3122 83.8011 64.8946 83.8011 65.5309V66.4514C83.8011 67.0878 83.6705 67.673 83.4091 68.2071C83.1534 68.7355 82.7727 69.1616 82.267 69.4855C81.767 69.8037 81.1534 69.9628 80.4261 69.9628C79.6875 69.9628 79.0653 69.8037 78.5597 69.4855C78.054 69.1616 77.6705 68.7355 77.4091 68.2071C77.1477 67.673 77.017 67.0878 77.017 66.4514ZM78.7557 65.5309V66.4514C78.7557 66.9798 78.8807 67.4542 79.1307 67.8747C79.3807 68.2895 79.8125 68.4968 80.4261 68.4968C81.0227 68.4968 81.4432 68.2895 81.6875 67.8747C81.9375 67.4542 82.0625 66.9798 82.0625 66.4514V65.5309C82.0625 65.0025 81.9432 64.5309 81.7045 64.1162C81.4659 63.6957 81.0398 63.4855 80.4261 63.4855C79.8295 63.4855 79.4006 63.6957 79.1392 64.1162C78.8835 64.5309 78.7557 65.0025 78.7557 65.5309ZM68.3239 56.4628V55.5423C68.3239 54.9059 68.4545 54.3236 68.7159 53.7951C68.983 53.2611 69.3693 52.8349 69.875 52.5167C70.3864 52.1929 71.0057 52.0309 71.733 52.0309C72.4716 52.0309 73.0909 52.1929 73.5909 52.5167C74.0909 52.8349 74.4688 53.2611 74.7244 53.7951C74.9801 54.3236 75.108 54.9059 75.108 55.5423V56.4628C75.108 57.0991 74.9773 57.6843 74.7159 58.2184C74.4602 58.7468 74.0795 59.173 73.5739 59.4968C73.0739 59.815 72.4602 59.9741 71.733 59.9741C70.9943 59.9741 70.3722 59.815 69.8665 59.4968C69.3608 59.173 68.9773 58.7468 68.7159 58.2184C68.4545 57.6843 68.3239 57.0991 68.3239 56.4628ZM70.0625 55.5423V56.4628C70.0625 56.9912 70.1875 57.4656 70.4375 57.8861C70.6875 58.3008 71.1193 58.5082 71.733 58.5082C72.3295 58.5082 72.75 58.3008 72.9943 57.8861C73.2443 57.4656 73.3693 56.9912 73.3693 56.4628V55.5423C73.3693 55.0139 73.25 54.5423 73.0114 54.1275C72.7727 53.7071 72.3466 53.4968 71.733 53.4968C71.1364 53.4968 70.7074 53.7071 70.446 54.1275C70.1903 54.5423 70.0625 55.0139 70.0625 55.5423ZM68.9716 69.7241L80.9716 52.2696H82.9148L70.9148 69.7241H68.9716Z" fill="#101828"/>
</svg>
