<svg width="121" height="121" viewBox="0 0 121 121" fill="none" xmlns="http://www.w3.org/2000/svg">
<path d="M120.8 60.7241C120.8 93.8612 93.9371 120.724 60.8 120.724C27.6629 120.724 0.799988 93.8612 0.799988 60.7241C0.799988 27.587 27.6629 0.724121 60.8 0.724121C93.9371 0.724121 120.8 27.587 120.8 60.7241ZM15.8 60.7241C15.8 85.5769 35.9472 105.724 60.8 105.724C85.6528 105.724 105.8 85.5769 105.8 60.7241C105.8 35.8713 85.6528 15.7241 60.8 15.7241C35.9472 15.7241 15.8 35.8713 15.8 60.7241Z" fill="#F2F4F7"/>
<path d="M60.8 0.724121C73.4707 0.724121 85.8162 4.73542 96.0671 12.1831C106.318 19.6308 113.948 30.1325 117.863 42.1831L103.598 46.8184C100.661 37.7804 94.9385 29.9041 87.2503 24.3184C79.5622 18.7326 70.3031 15.7241 60.8 15.7241V0.724121Z" fill="#244E5A"/>
<path d="M117.863 42.1831C120.347 49.8276 121.27 57.8933 120.576 65.9013C119.883 73.9093 117.587 81.6963 113.826 88.7999C110.065 95.9036 104.915 102.179 98.6812 107.254C92.4478 112.329 85.2582 116.099 77.5395 118.342C69.8207 120.584 61.73 121.253 53.7477 120.308C45.7655 119.363 38.0545 116.824 31.0725 112.842C24.0905 108.86 17.9798 103.515 13.1033 97.1251C8.22685 90.7353 4.68396 83.4309 2.685 75.6455L17.2137 71.9152C18.713 77.7542 21.3701 83.2325 25.0275 88.0248C28.6849 92.8171 33.2678 96.8257 38.5043 99.8125C43.7409 102.799 49.5241 104.704 55.5108 105.412C61.4975 106.121 67.5655 105.619 73.3546 103.937C79.1437 102.255 84.5358 99.4275 89.2109 95.6214C93.8859 91.8153 97.7485 87.1087 100.569 81.781C103.39 76.4532 105.112 70.613 105.632 64.607C106.152 58.601 105.46 52.5518 103.598 46.8184L117.863 42.1831Z" fill="#FF9E1B"/>
<path d="M2.58224 75.2394C0.291576 66.0521 0.207807 56.453 2.33779 47.2271C4.46776 38.0011 8.75101 29.4102 14.8373 22.1569L26.328 31.7987C21.7633 37.2387 18.5508 43.6819 16.9533 50.6013C15.3559 57.5208 15.4187 64.7201 17.1367 71.6106L2.58224 75.2394Z" fill="#931E42"/>
<path d="M38.3068 69.7241V68.19L44.0682 61.8832C44.7443 61.1446 45.3011 60.5025 45.7386 59.9571C46.1761 59.4059 46.5 58.8889 46.7102 58.4059C46.9261 57.9173 47.0341 57.4059 47.0341 56.8718C47.0341 56.2582 46.8864 55.727 46.5909 55.2781C46.3011 54.8292 45.9034 54.4826 45.3977 54.2383C44.892 53.994 44.3239 53.8718 43.6932 53.8718C43.0227 53.8718 42.4375 54.0111 41.9375 54.2895C41.4432 54.5622 41.0597 54.9457 40.7869 55.44C40.5199 55.9343 40.3864 56.5139 40.3864 57.1787H38.375C38.375 56.1559 38.6108 55.2582 39.0824 54.4855C39.554 53.7128 40.196 53.1105 41.0085 52.6787C41.8267 52.2468 42.7443 52.0309 43.7614 52.0309C44.7841 52.0309 45.6903 52.2468 46.4801 52.6787C47.2699 53.1105 47.8892 53.6929 48.3381 54.4258C48.7869 55.1588 49.0114 55.9741 49.0114 56.8718C49.0114 57.5139 48.8949 58.1417 48.6619 58.7554C48.4347 59.3633 48.0369 60.0423 47.4688 60.7923C46.9062 61.5366 46.125 62.4457 45.125 63.5196L41.2045 67.7128V67.8491H49.3182V69.7241H38.3068ZM58.5312 69.9628C57.2472 69.9628 56.1534 69.6133 55.25 68.9145C54.3466 68.2099 53.6563 67.19 53.179 65.8548C52.7017 64.5139 52.4631 62.8946 52.4631 60.9968C52.4631 59.1105 52.7017 57.4997 53.179 56.1645C53.6619 54.8236 54.3551 53.8008 55.2585 53.0963C56.1676 52.3861 57.2585 52.0309 58.5312 52.0309C59.804 52.0309 60.892 52.3861 61.7955 53.0963C62.7045 53.8008 63.3977 54.8236 63.875 56.1645C64.358 57.4997 64.5994 59.1105 64.5994 60.9968C64.5994 62.8946 64.3608 64.5139 63.8835 65.8548C63.4062 67.19 62.7159 68.2099 61.8125 68.9145C60.9091 69.6133 59.8153 69.9628 58.5312 69.9628ZM58.5312 68.0878C59.804 68.0878 60.7926 67.4741 61.4972 66.2468C62.2017 65.0196 62.554 63.2696 62.554 60.9968C62.554 59.4855 62.392 58.1986 62.0682 57.1361C61.75 56.0736 61.2898 55.2639 60.6875 54.7071C60.0909 54.1503 59.3722 53.8718 58.5312 53.8718C57.2699 53.8718 56.2841 54.494 55.5739 55.7383C54.8636 56.977 54.5085 58.7298 54.5085 60.9968C54.5085 62.5082 54.6676 63.7923 54.9858 64.8491C55.304 65.9059 55.7614 66.7099 56.358 67.2611C56.9602 67.8122 57.6847 68.0878 58.5312 68.0878ZM76.7358 66.4514V65.5309C76.7358 64.8946 76.8665 64.3122 77.1278 63.7838C77.3949 63.2497 77.7813 62.8236 78.2869 62.5054C78.7983 62.1815 79.4176 62.0196 80.1449 62.0196C80.8835 62.0196 81.5028 62.1815 82.0028 62.5054C82.5028 62.8236 82.8807 63.2497 83.1364 63.7838C83.392 64.3122 83.5199 64.8946 83.5199 65.5309V66.4514C83.5199 67.0878 83.3892 67.673 83.1278 68.2071C82.8722 68.7355 82.4915 69.1616 81.9858 69.4855C81.4858 69.8037 80.8722 69.9628 80.1449 69.9628C79.4063 69.9628 78.7841 69.8037 78.2784 69.4855C77.7727 69.1616 77.3892 68.7355 77.1278 68.2071C76.8665 67.673 76.7358 67.0878 76.7358 66.4514ZM78.4744 65.5309V66.4514C78.4744 66.9798 78.5994 67.4542 78.8494 67.8747C79.0994 68.2895 79.5313 68.4968 80.1449 68.4968C80.7415 68.4968 81.1619 68.2895 81.4062 67.8747C81.6562 67.4542 81.7812 66.9798 81.7812 66.4514V65.5309C81.7812 65.0025 81.6619 64.5309 81.4233 64.1162C81.1847 63.6957 80.7585 63.4855 80.1449 63.4855C79.5483 63.4855 79.1193 63.6957 78.858 64.1162C78.6023 64.5309 78.4744 65.0025 78.4744 65.5309ZM68.0426 56.4628V55.5423C68.0426 54.9059 68.1733 54.3236 68.4347 53.7951C68.7017 53.2611 69.0881 52.8349 69.5938 52.5167C70.1051 52.1929 70.7244 52.0309 71.4517 52.0309C72.1903 52.0309 72.8097 52.1929 73.3097 52.5167C73.8097 52.8349 74.1875 53.2611 74.4432 53.7951C74.6989 54.3236 74.8267 54.9059 74.8267 55.5423V56.4628C74.8267 57.0991 74.696 57.6843 74.4347 58.2184C74.179 58.7468 73.7983 59.173 73.2926 59.4968C72.7926 59.815 72.179 59.9741 71.4517 59.9741C70.7131 59.9741 70.0909 59.815 69.5852 59.4968C69.0795 59.173 68.696 58.7468 68.4347 58.2184C68.1733 57.6843 68.0426 57.0991 68.0426 56.4628ZM69.7812 55.5423V56.4628C69.7812 56.9912 69.9062 57.4656 70.1562 57.8861C70.4062 58.3008 70.8381 58.5082 71.4517 58.5082C72.0483 58.5082 72.4688 58.3008 72.7131 57.8861C72.9631 57.4656 73.0881 56.9912 73.0881 56.4628V55.5423C73.0881 55.0139 72.9688 54.5423 72.7301 54.1275C72.4915 53.7071 72.0653 53.4968 71.4517 53.4968C70.8551 53.4968 70.4261 53.7071 70.1648 54.1275C69.9091 54.5423 69.7812 55.0139 69.7812 55.5423ZM68.6903 69.7241L80.6903 52.2696H82.6335L70.6335 69.7241H68.6903Z" fill="#101828"/>
</svg>
