<svg width="37" height="37" viewBox="0 0 37 37" fill="none" xmlns="http://www.w3.org/2000/svg">
<path d="M25.125 11.2241C25.6562 11.2241 26.125 11.6929 26.125 12.2241V16.7241C26.125 17.2866 25.6562 17.7241 25.125 17.7241H21.125C20.5625 17.7241 20.125 17.2866 20.125 16.7241C20.125 16.1929 20.5625 15.7241 21.125 15.7241H22.5C21.625 14.5054 20.1875 13.7241 18.625 13.7241C16.5312 13.7241 14.6875 15.0679 14.0625 17.0366C13.9062 17.5679 13.3438 17.8491 12.8125 17.6929C12.2812 17.5366 12 16.9741 12.1562 16.4429C13.0625 13.6304 15.6562 11.7241 18.625 11.7241C20.8438 11.7241 22.875 12.8179 24.125 14.5679V12.2241C24.125 11.6929 24.5625 11.2241 25.125 11.2241ZM24.4062 19.7866C24.9375 19.9429 25.2188 20.5054 25.0312 21.0366C24.125 23.8491 21.5312 25.7241 18.5938 25.7241C16.375 25.7241 14.3438 24.6616 13.125 22.9116V25.2241C13.125 25.7866 12.6562 26.2241 12.125 26.2241C11.5625 26.2241 11.125 25.7866 11.125 25.2241V20.7241C11.125 20.1929 11.5625 19.7241 12.125 19.7241H16.125C16.6562 19.7241 17.125 20.1929 17.125 20.7241C17.125 21.2866 16.6562 21.7241 16.125 21.7241H14.7188C15.5938 22.9741 17.0312 23.7241 18.625 23.7241C20.6875 23.7241 22.5312 22.4116 23.1562 20.4429C23.3125 19.9116 23.875 19.6304 24.4062 19.7866Z" fill="#767579"/>
</svg>
