<svg width="4" height="16" viewBox="0 0 4 16" fill="none" xmlns="http://www.w3.org/2000/svg">
<path d="M2.00002 8.55743C2.46026 8.55743 2.83335 8.18434 2.83335 7.7241C2.83335 7.26386 2.46026 6.89077 2.00002 6.89077C1.53978 6.89077 1.16669 7.26386 1.16669 7.7241C1.16669 8.18434 1.53978 8.55743 2.00002 8.55743Z" stroke="#98A2B3" stroke-width="1.66667" stroke-linecap="round" stroke-linejoin="round"/>
<path d="M2.00002 2.7241C2.46026 2.7241 2.83335 2.351 2.83335 1.89077C2.83335 1.43053 2.46026 1.05743 2.00002 1.05743C1.53978 1.05743 1.16669 1.43053 1.16669 1.89077C1.16669 2.351 1.53978 2.7241 2.00002 2.7241Z" stroke="#98A2B3" stroke-width="1.66667" stroke-linecap="round" stroke-linejoin="round"/>
<path d="M2.00002 14.3908C2.46026 14.3908 2.83335 14.0177 2.83335 13.5574C2.83335 13.0972 2.46026 12.7241 2.00002 12.7241C1.53978 12.7241 1.16669 13.0972 1.16669 13.5574C1.16669 14.0177 1.53978 14.3908 2.00002 14.3908Z" stroke="#98A2B3" stroke-width="1.66667" stroke-linecap="round" stroke-linejoin="round"/>
</svg>
